<?xml version="1.0" standalone="no"?>
<!DOCTYPE svg PUBLIC "-//W3C//DTD SVG 20010904//EN"
 "http://www.w3.org/TR/2001/REC-SVG-20010904/DTD/svg10.dtd">
<svg version="1.0" xmlns="http://www.w3.org/2000/svg"
 width="763.000000pt" height="763.000000pt" viewBox="0 0 763.000000 763.000000"
 preserveAspectRatio="xMidYMid meet">
<metadata>
Created by potrace 1.14, written by Peter Selinger 2001-2017
</metadata>
<g transform="translate(0.000000,763.000000) scale(0.100000,-0.100000)"
fill="#000000" stroke="none">
<path d="M3394 6786 c-23 -7 -80 -34 -127 -59 -145 -77 -179 -86 -277 -77 -47
5 -123 19 -170 31 -149 38 -273 16 -358 -65 -46 -43 -66 -85 -92 -196 -43
-189 -90 -232 -347 -321 -202 -70 -262 -113 -416 -292 -32 -37 -93 -94 -135
-126 -103 -79 -152 -132 -198 -216 -80 -146 -103 -169 -268 -278 -61 -41 -124
-87 -140 -103 -61 -61 -109 -155 -156 -309 -12 -38 -32 -99 -46 -135 -13 -36
-24 -69 -23 -73 0 -7 -39 -54 -141 -167 -85 -95 -117 -201 -100 -334 18 -142
14 -187 -30 -315 -50 -149 -55 -196 -36 -351 9 -78 11 -129 5 -136 -9 -11 -28
-61 -70 -189 -33 -98 -29 -187 16 -335 21 -69 41 -129 45 -135 4 -5 4 -35 -1
-65 -4 -30 -8 -98 -8 -151 -1 -122 17 -176 109 -329 38 -63 87 -162 110 -219
47 -123 79 -172 134 -210 72 -49 125 -64 218 -59 65 3 100 11 163 37 181 75
203 81 265 67 81 -19 119 -38 229 -110 121 -80 352 -199 435 -225 45 -14 100
-20 206 -22 89 -2 155 -9 170 -16 71 -36 227 -95 282 -107 35 -8 115 -17 178
-21 129 -8 210 -30 339 -94 264 -130 600 -167 965 -105 117 19 213 53 366 128
222 110 320 140 432 135 64 -4 82 -9 147 -47 109 -63 162 -78 227 -64 28 6 71
19 95 30 102 46 123 52 193 52 45 0 104 -9 161 -25 176 -49 241 -64 325 -75
47 -6 144 -27 215 -47 203 -57 332 -49 449 28 60 40 97 91 171 233 l57 112
152 74 c167 82 223 127 266 215 24 48 25 58 24 228 -2 174 -2 178 -28 211
l-26 34 37 19 c20 10 41 27 47 37 6 11 25 43 42 70 80 132 87 217 31 416 l-35
126 10 134 c16 217 7 266 -77 460 l-37 85 1 145 c2 203 -13 249 -138 413 -66
87 -93 142 -121 242 -25 91 -53 149 -134 287 -31 53 -56 99 -56 103 0 19 -93
191 -124 228 -19 24 -79 73 -133 110 -125 84 -151 112 -209 222 -96 183 -151
236 -339 325 -66 31 -135 70 -153 85 -19 16 -69 80 -112 144 -92 137 -162 207
-256 253 -78 39 -119 51 -251 73 -143 23 -185 43 -293 141 -104 93 -172 141
-238 167 -35 14 -172 39 -282 52 -14 2 -75 28 -135 58 -61 30 -138 62 -170 71
-59 15 -237 38 -284 37 -13 -1 -29 3 -35 9 -7 5 -55 26 -106 46 -90 35 -102
37 -230 40 -95 3 -147 0 -176 -10z m41 -1770 c107 -29 232 -38 335 -22 45 7
68 4 124 -13 37 -11 88 -21 113 -21 58 0 101 -26 146 -89 89 -123 273 -218
451 -230 l89 -7 38 -42 c21 -24 40 -55 44 -70 7 -34 54 -93 125 -157 30 -28
61 -56 68 -63 8 -7 40 -30 72 -52 32 -22 68 -53 80 -70 19 -26 92 -220 84
-220 -2 0 -30 17 -63 38 -33 22 -92 50 -133 63 -65 21 -91 24 -228 24 -242 -1
-402 -37 -477 -109 -36 -34 -45 -49 -46 -78 -2 -89 101 -125 233 -83 14 4 20
3 16 -3 -3 -5 -21 -13 -41 -16 -71 -14 -197 -86 -268 -154 l-68 -66 -97 34
c-86 30 -111 34 -222 37 -130 4 -192 -6 -312 -53 l-46 -18 -70 66 c-72 68
-199 141 -268 154 -19 3 -37 11 -40 16 -4 6 2 7 16 3 58 -18 136 -22 169 -9
45 19 60 41 61 88 0 54 -63 117 -140 140 -131 39 -214 50 -380 50 -154 1 -170
-1 -238 -26 -96 -35 -166 -81 -214 -141 -43 -55 -45 -75 -8 -94 27 -14 25 -15
-60 -34 -30 -6 -60 -16 -66 -20 -6 -5 -32 -12 -58 -15 -46 -7 -46 -6 -37 17 4
13 5 34 0 46 -4 11 -9 62 -11 112 -3 85 -9 108 -21 79 -3 -7 -6 -4 -6 8 -1 11
16 57 38 100 50 102 87 208 96 270 15 100 44 141 190 268 98 85 151 139 191
197 84 120 92 124 232 124 115 0 179 11 342 56 82 22 139 19 265 -15z m-595
-1131 c84 -14 261 -71 190 -61 -169 24 -297 29 -437 18 -82 -7 -161 -15 -178
-18 -16 -3 5 11 47 30 124 57 193 62 378 31z m2215 -6 c70 -23 146 -62 105
-54 -116 23 -368 31 -480 15 -36 -5 -87 -11 -115 -15 l-50 -6 55 21 c71 27
124 39 235 55 104 16 166 11 250 -16z m239 -64 c4 -12 -3 -15 -29 -15 -39 0
-56 17 -23 23 41 8 46 7 52 -8z m-2384 -80 c217 -35 394 -126 445 -228 l16
-32 -26 28 c-14 15 -32 27 -40 27 -8 0 -15 4 -15 9 0 15 -162 61 -247 70 -140
15 -377 -11 -477 -53 -33 -14 -41 -14 -73 -1 -47 20 -46 20 -39 -20 6 -30 4
-35 -11 -35 -10 1 -29 7 -43 15 -14 8 -33 14 -43 15 -18 0 -18 -2 2 -36 12
-19 21 -37 21 -40 0 -11 -67 -2 -84 11 -42 32 -50 6 -11 -35 25 -26 25 -27 7
-43 -16 -14 -24 -15 -51 -6 -40 14 -47 8 -27 -24 21 -32 12 -53 -25 -61 -23
-4 -29 -10 -26 -23 2 -10 -4 -31 -13 -48 -27 -46 -32 -81 -15 -95 8 -7 15 -9
15 -4 0 5 4 3 9 -5 14 -21 39 -6 69 43 26 43 77 86 100 86 7 0 12 -9 12 -20 0
-31 14 -24 45 20 16 23 43 54 62 70 35 31 152 95 159 87 3 -2 -4 -28 -16 -56
-55 -140 4 -309 133 -384 48 -28 117 -44 117 -27 0 5 -6 10 -14 10 -7 0 -16 9
-19 20 -4 15 0 20 16 21 20 1 20 2 -3 9 -20 6 -13 8 30 9 69 2 111 17 183 65
47 31 60 36 72 26 19 -16 19 -41 0 -66 -23 -31 -17 -40 10 -14 44 41 77 123
84 207 l6 76 49 -49 c26 -27 59 -65 72 -86 33 -52 42 -54 34 -6 -6 30 -3 52 9
82 l18 41 7 -36 c15 -84 -63 -326 -142 -441 -126 -183 -338 -271 -605 -253
-163 11 -270 59 -381 169 -78 77 -121 151 -156 261 -45 142 -22 422 43 552 30
59 87 116 136 138 20 9 43 20 52 25 22 12 118 29 214 39 130 13 254 12 355 -4z
m2190 -5 c146 -26 196 -46 257 -103 75 -69 109 -159 134 -347 18 -140 -8 -297
-70 -414 -40 -76 -178 -226 -208 -226 -3 0 -14 -6 -22 -14 -30 -28 -170 -66
-264 -72 -280 -18 -499 84 -621 292 -72 123 -136 327 -120 388 14 57 44 14 38
-54 l-5 -45 43 50 c50 59 110 116 115 111 2 -2 5 -35 7 -74 2 -52 10 -86 30
-126 31 -64 114 -142 160 -152 17 -3 37 -11 43 -16 7 -6 25 -7 40 -3 l28 8
-35 9 c-39 11 -53 27 -40 44 6 6 8 13 6 15 -2 2 14 5 37 7 69 5 119 22 172 59
59 43 98 49 103 15 2 -13 -4 -35 -13 -48 -25 -38 -11 -39 20 -2 75 89 96 213
55 319 -12 28 -19 53 -18 54 2 1 27 -7 57 -18 52 -20 157 -111 188 -162 12
-20 12 -20 19 3 13 45 74 16 128 -62 32 -46 43 -55 62 -52 13 3 28 7 34 11 13
8 3 51 -24 95 -11 19 -19 43 -18 52 2 11 -5 19 -20 23 -35 9 -52 40 -33 59 30
30 14 44 -30 27 -22 -9 -55 7 -55 25 0 6 9 19 20 29 20 18 27 45 12 45 -5 0
-17 -7 -28 -15 -10 -8 -32 -15 -48 -15 -25 0 -27 3 -21 23 3 12 9 33 12 45 l6
24 -43 -22 c-53 -27 -72 -21 -64 20 7 34 0 37 -44 14 -28 -14 -35 -14 -64 0
-90 42 -362 68 -498 47 -71 -11 -189 -47 -200 -62 -3 -3 -15 -9 -26 -13 -12
-4 -38 -22 -58 -42 -43 -42 -48 -23 -7 32 35 48 85 94 131 122 57 33 241 91
327 101 90 11 333 6 413 -9z m-1153 -189 c10 -6 37 -15 61 -21 55 -14 85 -43
76 -73 -9 -29 -26 -50 -33 -40 -24 33 -195 84 -176 53 4 -6 -7 -10 -25 -10
l-31 0 27 -25 c15 -14 35 -25 45 -25 10 0 42 -9 71 -20 89 -33 111 -86 123
-298 17 -294 207 -585 458 -702 140 -65 236 -84 427 -85 194 0 247 12 348 82
35 23 65 43 67 43 7 0 1 -44 -6 -50 -4 -3 -9 -21 -12 -40 -4 -35 -19 -96 -38
-157 -6 -18 -12 -42 -14 -54 -12 -64 -101 -218 -167 -292 -16 -16 -28 -33 -28
-37 0 -15 -239 -245 -380 -367 -24 -21 -52 -46 -62 -56 -10 -9 -21 -17 -25
-17 -5 0 -35 -25 -68 -56 -153 -140 -298 -219 -418 -230 -34 -3 -82 -10 -107
-15 -73 -15 -377 -22 -460 -11 -41 6 -113 16 -160 22 -47 6 -93 16 -102 21
-10 5 -25 9 -33 9 -14 0 -56 20 -115 55 -36 22 -105 71 -138 100 -20 17 -56
48 -82 70 -230 195 -354 308 -441 401 -41 43 -76 81 -79 84 -20 20 -70 91 -70
99 0 6 -4 11 -9 11 -21 0 -134 260 -134 310 0 8 -3 20 -8 25 -4 6 -10 28 -12
50 -8 69 -19 115 -28 121 -5 3 -9 16 -9 30 0 13 -6 24 -12 25 -10 0 -10 2 -1
5 6 3 31 -14 55 -37 59 -58 121 -96 198 -121 90 -30 323 -29 452 1 246 58 420
189 535 401 74 138 106 259 107 415 2 112 4 124 30 172 31 57 60 75 145 94 30
6 51 16 51 24 0 7 8 16 18 18 13 4 11 5 -5 6 -13 0 -23 6 -23 11 0 23 -109 2
-138 -27 -7 -7 -21 -13 -31 -13 -9 0 -22 -5 -27 -10 -13 -13 -28 2 -38 37 -13
41 53 77 189 104 53 10 238 3 262 -10z m-1140 -133 c31 -35 33 -52 12 -87 -23
-38 -70 -43 -106 -9 -30 28 -29 63 2 93 30 31 65 32 92 3z m1817 -10 c22 -30
20 -60 -4 -86 -43 -46 -120 -18 -120 44 0 25 13 37 55 52 44 15 52 14 69 -10z
m-1221 -553 c-3 -9 -8 -14 -10 -11 -3 3 -2 9 2 15 9 16 15 13 8 -4z m-1465
-166 c5 -103 -3 -132 -29 -107 -8 7 -31 26 -53 42 -38 28 -38 30 -34 83 3 30
9 58 15 61 6 4 13 17 17 29 9 29 36 34 61 11 16 -15 20 -35 23 -119z m1433 99
c-29 -77 -146 -218 -227 -273 -64 -44 -194 -94 -285 -109 -69 -12 -253 -7
-318 8 -35 8 -89 27 -120 42 -55 28 -143 101 -162 136 -9 16 -6 16 28 -3 21
-12 49 -29 63 -38 130 -90 455 -107 653 -36 138 50 255 138 332 249 40 58 52
66 36 24z m1000 -159 c86 -72 226 -132 344 -149 234 -33 440 10 593 123 52 37
81 45 48 12 -9 -9 -16 -22 -16 -29 0 -20 -83 -93 -142 -125 -91 -50 -159 -65
-298 -64 -214 0 -387 58 -507 169 -14 13 -29 24 -32 24 -4 0 -15 13 -24 30
-10 16 -23 35 -30 42 -7 7 -19 22 -27 33 -16 21 2 8 91 -66z"/>
<path d="M2928 2923 c6 -2 18 -2 25 0 6 3 1 5 -13 5 -14 0 -19 -2 -12 -5z"/>
<path d="M3464 2464 c-38 -57 -26 -179 25 -257 80 -122 356 -159 524 -69 88
47 136 148 122 258 -4 37 -14 63 -28 77 l-22 22 -6 -58 c-14 -124 -52 -178
-156 -217 -117 -44 -306 -12 -368 62 -29 34 -55 115 -55 170 0 44 -13 49 -36
12z"/>
<path d="M3241 1857 c-81 -9 -83 -10 -54 -22 94 -40 360 -97 445 -96 28 0 38
-4 43 -19 7 -21 20 -26 30 -11 3 5 -3 12 -12 15 -10 3 5 3 32 0 28 -2 73 -4
100 -4 28 1 64 1 82 0 18 0 43 4 56 9 14 6 69 17 123 26 55 9 108 20 119 25
11 5 34 11 50 15 17 3 62 16 100 28 l70 21 -90 11 c-52 7 -107 8 -130 3 -153
-31 -209 -35 -435 -32 -239 3 -360 13 -398 33 -11 6 -27 10 -34 10 -7 -1 -51
-6 -97 -12z m706 -123 c-3 -3 -12 -4 -19 -1 -8 3 -5 6 6 6 11 1 17 -2 13 -5z"/>
<path d="M3300 1699 c0 -10 5 -19 10 -19 6 0 10 -6 10 -14 0 -41 170 -143 327
-195 100 -34 158 -36 249 -11 94 25 278 111 316 148 27 25 55 88 45 99 -6 5
-64 -25 -85 -44 -7 -7 -18 -13 -23 -13 -5 0 -41 -20 -81 -45 -40 -25 -80 -45
-90 -45 -10 0 -18 -4 -18 -8 0 -11 -127 -42 -168 -42 -44 0 -132 22 -132 33 0
5 -7 6 -16 3 -15 -6 -95 31 -102 47 -2 4 -9 7 -16 7 -7 0 -41 14 -75 31 -45
23 -59 34 -50 40 11 7 9 9 -6 9 -12 0 -37 9 -58 19 -36 18 -37 18 -37 0z"/>
</g>
</svg>
